<?xml version="1.0" encoding="UTF-8"?>
<svg version="1.1" viewBox="0 0 2048 1475" width="1280" height="1280" xmlns="http://www.w3.org/2000/svg">
<path transform="translate(642)" d="m0 0h766l1 395-1 37-2 36-4 40-5 36-7 37-9 38-12 40-12 33-11 26-14 30-13 24-12 20-20 30-9 12-10 13-9 11-13 15-12 13-28 28-8 7-14 12-16 13-20 15-36 24-25 15-24 13-17 9-19 9-6-1-29-14-22-12-24-14-22-14-16-11-19-14-16-13-10-8-11-10-8-7-10-9v-2l-4-2-15-15-7-8-11-12-9-11-13-16-13-18-16-24-15-25-13-24-14-29-13-32-10-28-10-33-9-36-7-35-6-40-4-38-3-48-1-40z" fill="#11944A"/>
<path transform="translate(661,390)" d="m0 0h730l1 1v26l-3 46-5 44-6 37-8 38-10 38-12 36-12 31-9 20-12 25-16 29-14 22-11 16-8 11-10 14-9 10-9 11-12 13-13 13-4 5h-2l-1 3h-2l-1 3-8 7-8 8-8 7-13 11-14 11-16 12-23 16-16 10-15 9-21 12-33 17-7-1-28-14-18-10-20-12-17-11-16-11-18-13-14-11-13-11-11-9-7-7-8-7-27-27-9-11-12-13-13-17-10-13-20-30-12-20-12-22-14-28-15-36-10-29-9-29-10-40-7-36-5-33-4-36-3-49v-25z" fill="#FCFCFC"/>
<path transform="translate(1e3 473)" d="m0 0 54 1 1 42 5 3 13 4 11 1 10-19 7-12 5-4 11 6 18 11 15 10 1 4-7 12-9 14-3 9 6 9 8 8 6 3 6-1 13-9 7-6 8-4 4 2 8 15 10 18 6 13-2 4-20 12-11 7 1 11 4 15 2 4 29 1 11 1 1 1v49l-1 5-9 1h-12l-19-1-3 10-4 18 1 5 14 8 14 9 3 3-1 7-11 20-6 11-7 11-5-2-16-10-10-6-7-1-5 4-7 8-5 6v7l5 9 10 15 3 7v4l-15 8-26 16-4 2h-3l-9-19-9-14-2-2h-8l-18 5h-2v33l-1 10-1 2h-48l-5-1-1-14-1-28-1-2-19-5h-7l-16 28-4 5-6-1-14-7-17-11-10-6 3-9 13-22 2-5v-6l-8-7-7-8-3-2h-6l-13 9-9 7-5 3-4-1-7-10-9-16-8-16-2-6 9-7 19-11 5-5-4-19-4-10h-29l-9-1-1-1-1-9v-40l2-6h38l3-8 5-20v-4l-4-2-21-12-9-7 8-16 9-17 9-14 4-1 17 11 13 8 5-1 10-9 7-9-1-8-9-16-8-13 2-4 11-8 15-9 14-7 5-1 4 5 13 24 3 5 11-1 15-4 1-1z" fill="#F5C61D"/>
<path transform="translate(642,369)" d="m0 0h717l49 1 1 5v20l-1 37-2 36-4 40-5 36-7 37-9 38-12 40-12 33-11 26-14 30-13 24-12 20-20 30-9 12-10 13-9 11-13 15-12 13-28 28-8 7-14 12-16 13-20 15-36 24-25 15-24 13-17 9-19 9-6-1-29-14-22-12-24-14-22-14-16-11-19-14-16-13-10-8-11-10-8-7-10-9v-2l-4-2-15-15-7-8-11-12-9-11-13-16-13-18-16-24-15-25-13-24-14-29-13-32-10-28-10-33-9-36-7-35-6-40-4-38-3-48zm19 21-2 1v25l3 49 5 44 6 37 9 41 9 33 8 25 10 28 15 35 17 34 14 24 12 19 11 16 9 12 10 13 9 11 10 11 9 11 32 32 8 7 10 9 14 11 11 9 19 14 16 11 17 11 25 15 26 14 20 10 7-1 22-11 22-12 25-15 24-16 17-12 13-10 16-13 13-11 13-12 9-8v-2l3-1v-2h2l7-8 18-18 9-11 13-15 11-15 12-17 13-20 9-15 16-29 14-29 11-27 11-30 10-33 10-40 7-36 6-42 4-41 2-33v-26l-1-1z" fill="#12944A"/>
<path transform="translate(1017,558)" d="m0 0h19l19 3 17 5 16 8 11 7 14 12 10 12 10 16 6 13 7 23 2 13 1 24-2 19-6 21-8 16-7 11-8 10-6 7-8 7-12 9-16 9-15 6-16 4-9 1h-16l-22-4-21-7-16-9-9-7-11-10-13-17-10-18-6-14-4-13-2-13v-29l5-25 6-18 8-16 7-9 9-7 7-8 3-3h2l1-3 15-11 16-8 17-5z" fill="#FBFCFB"/>
<path transform="translate(894,36)" d="m0 0 10 3 21 5 18 2 27 1 17 3 12 5 9 6 2 2 1 4v218l-4-1-10-7-12-5-11-2-21 1-40 4h-20v-238z" fill="#CCDCC2"/>
<path transform="translate(1134,36)" d="m0 0h3v239h-22l-49-5h-12l-13 3-12 6-9 7h-1v-221l5-6 10-6 13-4 14-2 26-1 19-2 20-5z" fill="#CCDCC2"/>
<path transform="translate(642,369)" d="m0 0h717l49 1 1 5v13l-1 2-17 1h-733l-16-1z" fill="#020103"/>
<path transform="translate(1298,1132)" d="m0 0h33l10 15 9 14h2l11-18 8-11h105v22l-22 1-1 84h-28v-85h-23v-17l-4 4-14 20-13 18-5 7-1 3-1 50h-28l-1-52-32-46-5-7z" fill="#020203"/>
<path transform="translate(712,1327)" d="m0 0h27l5 5 12 15 13 17 10 13 11 14 1-63 1-1h27l1 1v106l-1 1h-28l-10-12-10-13-13-17-14-18-3-4-1 64h-28l-1-3v-103z" fill="#050707"/>
<path transform="translate(1781,1132)" d="m0 0h29l13 16 12 16 14 18 10 13h1v-63h29v107h-29l-13-16-12-16-14-18-10-13-1 63h-29z" fill="#030405"/>
<path transform="translate(717,1132)" d="m0 0h29l11 13 9 12 20 26 9 12 2 1-1-4v-46l1-14h28v107h-29l-28-36-13-17-8-10-1 63h-29z" fill="#020304"/>
<path transform="translate(397,1132)" d="m0 0h29l11 14 10 13 14 18 13 17 1 1 1-63h29v107h-29l-10-12-13-17-14-18-12-16-2-1v64h-28l-1-26v-58z" fill="#020404"/>
<path transform="translate(1145,1129)" d="m0 0h20l16 4 12 7 10 10 6 10 4 10 2 11v9l-3 14-7 14-9 10-9 7-15 6-6 1h-22l-12-3-12-6-11-10-7-11-5-12-1-5v-19l5-15 9-14 9-8 11-6 9-3zm5 25-10 4-8 6-6 10-2 8v8l3 10 7 9 9 6 7 2h10l11-4 7-5 6-9 2-6v-15l-4-9-7-8-8-5-8-2z" fill="#020304"/>
<path transform="translate(54,1129)" d="m0 0h20l12 3 10 5 10 9 6 9-1 3-19 7h-5l-5-5-9-4-4-1h-11l-10 4-7 7-5 12v16l4 9 7 8 8 4 4 1h11l9-3 5-4 4-9h-24l-1-1v-21l1-1h54l1 4-2 18-4 13-7 12-8 8-16 8-9 2h-20l-12-3-12-6-9-8-7-10-5-13-1-4v-24l4-13 7-12 10-10 14-7z" fill="#020404"/>
<path transform="translate(1043,596)" d="m0 0h26l12 5 9 6 5 4 3 5 1 9 3-1 7 8-1 5-7 8h-3l-5-6-2-7-2-1h-6l-5 3h-2l-2 4-9 9-8 10-11 13-9 11-5 7 3 4 5-2 3 3 3 7 6 1 14 19 11 15 11 16 4 8-1 5-4 6-7 4-5-1-9-10-24-34-8-12v-8l-7-5v-3l3-3-1-4-4 2-3 9-14 18-18 22-9 10-7 8-4 4-9-2-4-5-1-3v-7l6-9 11-14 9-11 12-14 9-10 4-5 6-2 4-4-1-4-9-13-12-17-13-18-8-10-6-7-2-7 2-2 4 1 6 7 6 11 10 14 14 19 12 17 3 3 2-5 11-12 8-10 14-17 9-13 1-6-4-5-10-3-18-2-2-1 1-3z" fill="#020605"/>
<path transform="translate(1665,1132)" d="m0 0h28l1 3-1 36h40v-39h28l1 5-1 102h-28v-45h-40v45h-28l-1-3v-98z" fill="#020304"/>
<path transform="translate(848,1132)" d="m0 0h50l10 3 11 6 10 9 6 8 5 11 2 8v18l-4 12-7 12-10 10-12 7-11 3-49 1-1-1-1-41zm28 22v63h12l10-3 6-4 5-6 4-9 1-5v-9l-3-10-6-9-7-5-11-3z" fill="#020203"/>
<path transform="translate(135,1132)" d="m0 0h53l11 4 8 6 6 10 2 7v14l-4 11-7 8-8 4-3 1 2 4 10 12 11 14 9 11v1h-33l-10-13-13-19-4-5-1 37h-29zm29 22v26h11l7-3 4-5v-9l-3-5-5-3-4-1z" fill="#020404"/>
<path transform="translate(1138,1327)" d="m0 0h27l1 1 1 71 3 7 5 4 7 2 9-1 6-4 3-4 2-9 1-66 1-1h26l1 1v74l-2 9-7 11-7 7-12 6-12 3h-17l-12-3-9-5-7-6-6-10-2-8-1-9v-69z" fill="#040505"/>
<path transform="translate(633,1132)" d="m0 0h30l5 12 17 45 18 48v2h-30l-6-17-1-2-38 1-6 17-1 1h-29l1-5 11-30 19-49 8-20zm14 32-11 30v3h23l-3-11-7-21z" fill="#030405"/>
<path transform="translate(1e3 1132)" d="m0 0h54l11 4 6 4 6 7 4 9 1 7v8l-2 10-5 10-8 7-11 4-20 1h-7l-1 36h-28l-1-36v-34zm28 22v26h16l6-3 3-5v-10l-5-6-7-2z" fill="#020304"/>
<path transform="translate(870,1325)" d="m0 0h19l15 4 8 4-1 5-9 17-5-2-7-4-4-1h-7l-6 3-2 3 1 7 5 4 20 7 11 6 6 7 3 9v12l-2 9-4 8-7 7-10 5-12 3h-17l-16-5-11-6 1-4 8-15 1-3 4 1 11 6 5 2h13l5-3 2-4-1-6-5-4-26-9-8-6-4-6-2-6-1-10 2-11 5-10 5-6 10-6z" fill="#020404"/>
<path transform="translate(317,1132)" d="m0 0h62v22l-33 1-1 19h31l1 1v21l-1 1-30 1v18l32 1 1 1v21h-62z" fill="#020304"/>
<path transform="translate(1331,1327)" d="m0 0h42l19 1v18l-1 4h-33v20h31l1 1-1 21-22 1h-8l-1 19 33 1 1 5v16l-1 1h-61v-107z" fill="#040405"/>
<path transform="translate(238,1132)" d="m0 0h61l1 5-1 17h-33v20h31v23h-31v20h33v22h-61z" fill="#020203"/>
<path transform="translate(1489,1132)" d="m0 0h61l1 2-1 20h-33v20h31v23h-31v20h33v22l-60 1-1-1z" fill="#020203"/>
<path transform="translate(869,56)" d="m0 0h12v233l35-1 31-3 8-1h23l12 5 8 6 12 11-1 4-10-6-11-3h-27l-35 4-15 1h-42l-1-1v-248z" fill="#CCDCC2"/>
<path transform="translate(1612,1129)" d="m0 0h17l16 4 1 1v30l-4-2-9-5-7-2h-10l-9 4-7 5-6 12-1 5v9l2 9 6 9 9 6 7 2h10l11-4 6-5h2v30l-8 3-8 2h-19l-13-4-11-6-10-9-7-10-5-13-1-4v-21l5-15 9-13 8-7 14-8z" fill="#020304"/>
<path transform="translate(2006,1129)" d="m0 0h17l16 4 1 1 1 31-5-3-8-5-7-2h-10l-10 4-8 7-4 8-1 3v18l7 14 12 6 4 1h10l11-4 7-5h2l-1 30-8 3-8 2h-19l-13-4-12-7-11-11-6-10-4-11-1-5v-16l3-12 6-12 9-10 7-6 12-6z" fill="#020404"/>
<path transform="translate(1149,56)" d="m0 0h11l2 2v176l-1 72h-44l-32-3-18-2h-26l-10 3-10 6h-2l2-5 10-10 11-7 10-4h23l38 4 35 1z" fill="#DADDCC"/>
<path transform="translate(1174,83)" d="m0 0h12v251l-1 1h-25l-49-1-49-5-12-1h-13l-10 1 5-5 12-7 12-3h9l51 5 35 1h22v-40z" fill="#DADDCC"/>
<path transform="translate(845,83)" d="m0 0h11l1 10v227h29l30-1 38-4 10-1h10l12 3 14 8 2 4-11-1h-10l-64 6-70 1-3-1v-250z" fill="#DBDDCD"/>
<path transform="translate(1052,1327)" d="m0 0h71l1 1v22h-22v84l-1 1h-28v-85h-22l-1-1v-13l1-8z" fill="#040707"/>
<path transform="translate(1245,1327)" d="m0 0h52l20 1v22h-22v84l-1 1h-28v-85h-22l-1-1v-19z" fill="#040606"/>
<path transform="translate(924,1327)" d="m0 0h72l1 1v21l-1 1h-22v85h-28l-1-11v-73l-22-1v-22z" fill="#050405"/>
<path transform="translate(1233,1132)" d="m0 0h29v85h33v22h-62z" fill="#020504"/>
<path transform="translate(527,1132)" d="m0 0h29v85h33v21l-1 1h-61z" fill="#020404"/>
<path transform="translate(662,1327)" d="m0 0h26l1 1v106l-1 1h-27v-107z" fill="#030606"/>
<path transform="translate(1011,1327)" d="m0 0h26l1 1v106l-1 1h-27v-107z" fill="#030605"/>
<path transform="translate(1912,1132)" d="m0 0h28v107h-28z" fill="#020605"/>
<path transform="translate(844,84)" d="m0 0h1l1 51v170l1 8-1 5-1 15 7-1v-11l3-9h1l1 8h29l30-1 38-4 10-1h10l12 3 14 8 2 4-11-1h-10l-64 6-70 1-3-1z" fill="#CCDCC2"/>
<path transform="translate(868,57)" d="m0 0h12v223l-5 2-3 3-2 3-1-5v-191l-1-5z" fill="#DCDECD"/>
<path transform="translate(1052,284)" d="m0 0h23l38 4 35 1v-5l5 3 2 4v5l-5 4-6 4 17 1v1h-44l-32-3-18-2h-26l-10 3-10 6h-2l2-5 10-10 11-7z" fill="#CCDCC2"/>
<path transform="translate(1056,314)" d="m0 0h9l51 5 35 1 18 1v2l3 1-2 1 1 2-3 2 1 4h9l7 1v1h-25l-49-1-49-5-12-1h-13l-10 1 5-5 12-7z" fill="#CCDCC2"/>
<path transform="translate(844,84)" d="m0 0h1l1 51v170l1 8-1 5-1 15 2 1h-3z" fill="#CCDCC2"/>
<path transform="translate(894,36)" d="m0 0 10 3 15 4v2l-8 1-8-1-4 4-1 2-1 28-2 21h-1z" fill="#DDDFCF"/>
<path transform="translate(972,285)" d="m0 0h9l14 7 15 14-1 4-10-6-11-3-5-9-1-4-10-2z" fill="#DADDCC"/>
<path transform="translate(1131,37)" d="m0 0h5v37l-2-4-3-20v-4l-11 1-4-4h3v-2z" fill="#DCDECE"/>
<path transform="translate(1038,290)" d="m0 0 5 1 2 4-1 4-3 2-10 3-10 6h-2l2-5 10-10z" fill="#DADDCC"/>
<path transform="translate(975,316)" d="m0 0h8l16 8 3 3v2l-11-1-2-1-11-1v-8l-3-1z" fill="#DCDFCF"/>
<path transform="translate(1039,51)" d="m0 0h8l-1 2h-2v2l-16 9-4 4h-3v-6l8-6z" fill="#DADDCC"/>
<path transform="translate(977,50)" d="m0 0h10l12 5 9 6 1 1v10l-2-3-3-5v-2l-7-2-7-3v-2l-6-2-7-2z" fill="#D9DDCB"/>
<path transform="translate(1044,317)" d="m0 0h5l1 5-1 4-16 1v2h-6l5-5z" fill="#DBDECD"/>
<path transform="translate(1008,272)" d="m0 0 2 3v9l-4-1-10-7 2-1 3 1 6-3z" fill="#DDE0D0"/>
<path transform="translate(870,289)" d="m0 0h1l1 7 6 7 4 2h-13z" fill="#DDDECE"/>
<path transform="translate(910,329)" d="m0 0 7 1 3-1h14l-1 2-23 2h-6l2-3z" fill="#DDDECE"/>
<path transform="translate(1027,276)" d="m0 0 2 1-1 3-9 6v-6l3-3z" fill="#DBDECD"/>
<path transform="translate(1175,84)" d="m0 0h10v8l-3-3-7-1z" fill="#FDFDFD"/>
<path transform="translate(1027,301)" d="m0 0 4 1v2l-10 6h-2l2-5z" fill="#E8EDE2"/>
<path transform="translate(1150,57)" d="m0 0h11l-1 5-8-1h-2z" fill="#FBFCFB"/>
<path transform="translate(1135,256)" d="m0 0h1v19l-4-1-1-3 3-3z" fill="#DDDECE"/>
<path transform="translate(1033,323)" d="m0 0 5 1v2l-5 1v2h-6l5-5z" fill="#ECF1E8"/>
<path transform="translate(894,266)" d="m0 0 5 5 1 3-6 1z" fill="#DDDECE"/>
<path transform="translate(1e3 302)" d="m0 0 4 1 3 3-1 4-5-3z" fill="#E9EFE5"/>
<path transform="translate(1120,290)" d="m0 0h21l-1 3-3-1-17-1z" fill="#DDDECE"/>
</svg>
